<svg xmlns="http://www.w3.org/2000/svg" viewBox="0 0 900 900">
  <rect width="900" height="900" rx="80" fill="#101010"/>
  <path d="M160 220h580v440H160z" fill="#ed1c24" opacity=".08"/>
  <ellipse cx="450" cy="700" rx="280" ry="48" fill="#000" opacity=".55"/>
  <path d="M235 370c60-105 370-105 430 0 18 31-8 68-44 68H279c-36 0-62-37-44-68Z" fill="#c77231"/>
  <path d="M238 455h424c36 0 65 29 65 65s-29 65-65 65H238c-36 0-65-29-65-65s29-65 65-65Z" fill="#4b2119"/>
  <path d="M205 565h490l-50 58H255z" fill="#f8c232"/>
  <path d="M248 620h404c30 0 54 24 54 54s-24 54-54 54H248c-30 0-54-24-54-54s24-54 54-54Z" fill="#d8873a"/>
  <g fill="#45a84b"><path d="M200 595c55-33 95 20 145 0s75 25 130 0 88 22 130 0 75 3 95 28H200z"/></g>
  <text x="450" y="166" text-anchor="middle" fill="#ed1c24" font-family="Impact, Arial Black, sans-serif" font-size="76">CLASICA</text>
</svg>
