<svg xmlns="http://www.w3.org/2000/svg" viewBox="0 0 900 900">
  <rect width="900" height="900" rx="80" fill="#0b0b0b"/>
  <path d="M130 595h640l-70 170H200z" fill="#f4f4f4"/>
  <path d="M155 560h590c30 0 50 31 38 58l-15 34H132l-15-34c-12-27 8-58 38-58Z" fill="#dfdfdf"/>
  <g stroke="#f7c544" stroke-width="26" stroke-linecap="round">
    <path d="M220 520 190 320"/><path d="M290 530 300 290"/><path d="M365 530 410 310"/><path d="M450 530 455 285"/><path d="M535 530 510 310"/><path d="M610 530 665 320"/><path d="M690 535 720 350"/>
  </g>
  <g fill="#8b3c28"><circle cx="300" cy="520" r="34"/><circle cx="430" cy="500" r="38"/><circle cx="560" cy="535" r="35"/><circle cx="640" cy="485" r="28"/></g>
  <path d="M230 495c155 70 300-50 455 30" stroke="#fff" stroke-width="22" stroke-linecap="round" fill="none"/>
  <path d="M250 550c150-45 300 55 440-10" stroke="#ed1c24" stroke-width="16" stroke-linecap="round" fill="none"/>
  <text x="450" y="165" text-anchor="middle" fill="#ed1c24" font-family="Impact, Arial Black, sans-serif" font-size="88">FRIES</text>
</svg>
