<svg xmlns="http://www.w3.org/2000/svg" viewBox="0 0 900 900">
  <rect width="900" height="900" rx="80" fill="#0b0b0b"/>
  <ellipse cx="450" cy="695" rx="300" ry="55" fill="#000" opacity=".55"/>
  <path d="M160 605h580l-70 140H230z" fill="#e7e7e7"/>
  <g fill="#f5be3b">
    <path d="M230 555 335 360l95 210z"/><path d="M365 565 470 345l92 225z"/><path d="M505 565 622 365l75 205z"/><path d="M280 625 390 430l100 210z"/><path d="M450 625 560 420l110 210z"/>
  </g>
  <g fill="#6b2b1e"><circle cx="380" cy="560" r="24"/><circle cx="500" cy="520" r="30"/><circle cx="570" cy="610" r="25"/></g>
  <path d="M290 570c120 70 245-45 350 35" stroke="#9bd05d" stroke-width="24" stroke-linecap="round" fill="none"/>
  <path d="M310 620c110-40 230 48 330-5" stroke="#fff3d0" stroke-width="18" stroke-linecap="round" fill="none"/>
  <text x="450" y="170" text-anchor="middle" fill="#ed1c24" font-family="Impact, Arial Black, sans-serif" font-size="84">NACHOS</text>
</svg>
